<svg width="18" height="16" viewBox="0 0 18 16" fill="none" xmlns="http://www.w3.org/2000/svg">
<path d="M12 3.5C12 5.15685 10.6568 6.5 8.99998 6.5C7.34313 6.5 5.99998 5.15685 5.99998 3.5C5.99998 1.84315 7.34313 0.5 8.99998 0.5C10.6568 0.5 12 1.84315 12 3.5Z" fill="#868686"/>
<path d="M17 5.5C17 6.60457 16.1046 7.5 15 7.5C13.8954 7.5 13 6.60457 13 5.5C13 4.39543 13.8954 3.5 15 3.5C16.1046 3.5 17 4.39543 17 5.5Z" fill="#868686"/>
<path d="M13 12.5C13 10.2909 11.2091 8.5 8.99998 8.5C6.79085 8.5 4.99998 10.2909 4.99998 12.5V15.5H13V12.5Z" fill="#868686"/>
<path d="M4.99998 5.5C4.99998 6.60457 4.10455 7.5 2.99998 7.5C1.89542 7.5 0.999985 6.60457 0.999985 5.5C0.999985 4.39543 1.89542 3.5 2.99998 3.5C4.10455 3.5 4.99998 4.39543 4.99998 5.5Z" fill="#868686"/>
<path d="M15 15.5V12.5C15 11.4459 14.7281 10.4552 14.2507 9.59432C14.4902 9.53275 14.7413 9.5 15 9.5C16.6568 9.5 18 10.8431 18 12.5V15.5H15Z" fill="#868686"/>
<path d="M3.74925 9.59432C3.27183 10.4552 2.99998 11.4459 2.99998 12.5V15.5H-1.52588e-05V12.5C-1.52588e-05 10.8431 1.34313 9.5 2.99998 9.5C3.25869 9.5 3.50975 9.53275 3.74925 9.59432Z" fill="#868686"/>
</svg>
