<svg width="25" height="25" viewBox="0 0 25 25" fill="none" xmlns="http://www.w3.org/2000/svg">
<g id="Sort descending">
<g id="Icon">
<path d="M3.75 3.75C3.05964 3.75 2.5 4.30964 2.5 5C2.5 5.69036 3.05964 6.25 3.75 6.25H17.5C18.1904 6.25 18.75 5.69036 18.75 5C18.75 4.30964 18.1904 3.75 17.5 3.75H3.75Z" fill="white"/>
<path d="M3.75 8.75C3.05964 8.75 2.5 9.30964 2.5 10C2.5 10.6904 3.05964 11.25 3.75 11.25H12.5C13.1904 11.25 13.75 10.6904 13.75 10C13.75 9.30964 13.1904 8.75 12.5 8.75H3.75Z" fill="white"/>
<path d="M3.75 13.75C3.05964 13.75 2.5 14.3096 2.5 15C2.5 15.6904 3.05964 16.25 3.75 16.25H8.75C9.44036 16.25 10 15.6904 10 15C10 14.3096 9.44036 13.75 8.75 13.75H3.75Z" fill="white"/>
<path d="M18.75 10C18.75 9.30964 18.1904 8.75 17.5 8.75C16.8096 8.75 16.25 9.30964 16.25 10L16.25 16.9822L14.6339 15.3661C14.1457 14.878 13.3543 14.878 12.8661 15.3661C12.378 15.8543 12.378 16.6457 12.8661 17.1339L16.6161 20.8839C16.8505 21.1183 17.1685 21.25 17.5 21.25C17.8315 21.25 18.1495 21.1183 18.3839 20.8839L22.1339 17.1339C22.622 16.6457 22.622 15.8543 22.1339 15.3661C21.6457 14.878 20.8543 14.878 20.3661 15.3661L18.75 16.9822L18.75 10Z" fill="white"/>
</g>
</g>
</svg>
