<svg width="12" height="10" viewBox="0 0 12 10" fill="none" xmlns="http://www.w3.org/2000/svg">
<g id="Sparkles">
<g id="Icon">
<path fill-rule="evenodd" clip-rule="evenodd" d="M9 1.00001C8.66863 1.00001 8.4 1.22387 8.4 1.50001V2.00001H7.8C7.46863 2.00001 7.2 2.22387 7.2 2.50001C7.2 2.77615 7.46863 3.00001 7.8 3.00001H8.4V3.50001C8.4 3.77615 8.66863 4.00001 9 4.00001C9.33137 4.00001 9.6 3.77615 9.6 3.50001V3.00001H10.2C10.5314 3.00001 10.8 2.77615 10.8 2.50001C10.8 2.22387 10.5314 2.00001 10.2 2.00001H9.6V1.50001C9.6 1.22387 9.33137 1.00001 9 1.00001ZM9 6.00001C8.66863 6.00001 8.4 6.22387 8.4 6.50001V7.00001H7.8C7.46863 7.00001 7.2 7.22387 7.2 7.50001C7.2 7.77615 7.46863 8.00001 7.8 8.00001H8.4V8.50001C8.4 8.77615 8.66863 9.00001 9 9.00001C9.33137 9.00001 9.6 8.77615 9.6 8.50001V8.00001H10.2C10.5314 8.00001 10.8 7.77615 10.8 7.50001C10.8 7.22387 10.5314 7.00001 10.2 7.00001H9.6V6.50001C9.6 6.22387 9.33137 6.00001 9 6.00001Z" fill="#16BB55"/>
<path fill-rule="evenodd" clip-rule="evenodd" d="M4.80003 1.00001C4.52779 1.00001 4.28967 1.15275 4.22001 1.37206L3.51248 3.59947L1.5002 4.56691C1.31447 4.65621 1.20003 4.82132 1.20003 5.00001C1.20003 5.1787 1.31447 5.34381 1.5002 5.4331L3.51248 6.40054L4.22001 8.62795C4.28967 8.84727 4.52779 9.00001 4.80003 9.00001C5.07227 9.00001 5.31039 8.84727 5.38006 8.62795L6.08759 6.40054L8.09984 5.4331C8.28557 5.3438 8.4 5.1787 8.4 5.00001C8.4 4.82132 8.28557 4.65621 8.09984 4.56692L6.08759 3.59947L5.38006 1.37206C5.31039 1.15275 5.07227 1.00001 4.80003 1.00001Z" fill="#16BB55"/>
</g>
</g>
</svg>
