<svg width="550" height="218" viewBox="0 0 550 218" fill="none" xmlns="http://www.w3.org/2000/svg">
<g clip-path="url(#clip0_8548_5751)">
<path fill-rule="evenodd" clip-rule="evenodd" d="M325.657 27.8447H345.176V16.0549H325.657V27.8447Z" fill="white"/>
<path fill-rule="evenodd" clip-rule="evenodd" d="M349.081 27.8447H368.598V16.0549H349.081V27.8447Z" fill="white"/>
<path fill-rule="evenodd" clip-rule="evenodd" d="M257.312 76.8862H287V63.2267H257.312V76.8862ZM330.289 35.7086V36.9518V47.4366V58.8873V70.6302H371.643V58.8873H349.61V47.4317H384.417V57.3817V69.1294V76.8854H306.315V63.2308V51.4979H257.312H239.78V76.8805V88.6431H257.312H287V94.7051H240.014V106.448H306.315V104.923V94.7051V88.6431H384.417H403.732V76.8805V69.1294V57.3817V47.4366V36.9716V35.7086H330.289Z" fill="white"/>
<path fill-rule="evenodd" clip-rule="evenodd" d="M228.067 31.7758H231.972V0.336121H228.067V31.7758Z" fill="white"/>
<path fill-rule="evenodd" clip-rule="evenodd" d="M269.732 34.8488C269.28 35.324 269.052 35.8741 269.052 36.5193C269.052 38.0748 269.801 38.8651 271.317 38.8651C271.967 38.8651 272.492 38.63 272.91 38.1749C273.352 37.7599 273.578 37.2295 273.578 36.5794C273.578 35.9741 273.352 35.4189 272.91 34.9187C272.492 34.4636 271.977 34.2285 271.378 34.2285C270.738 34.2285 270.182 34.4436 269.732 34.8488Z" fill="white"/>
<path fill-rule="evenodd" clip-rule="evenodd" d="M269.506 32.5095H281.188H282.671H302.592C303.836 32.5095 304.466 31.6243 304.466 29.8886V27.2427H293.392C292.525 27.2427 291.671 26.8175 290.838 25.9823C290.005 25.147 289.579 24.2866 289.579 23.4063C289.579 22.3409 290.046 21.4107 290.952 20.6153C291.905 19.7601 292.901 19.3449 293.973 19.3449H304.341V14.1881H293.168C290.789 14.1881 288.756 14.8883 287.1 16.2588C285.354 17.7443 284.486 19.67 284.486 22.0308C284.486 23.9466 285.116 25.6871 286.411 27.2427H282.671H281.188H275.739V19.3449H270.637V25.7071C270.563 26.7376 270.225 27.2427 269.506 27.2427H266.889H262.688V22.6111C262.688 20.5403 261.751 18.6597 259.857 16.944C257.997 15.1884 256.049 14.3081 254.01 14.3081H246.919V19.46C250.169 19.46 252.226 19.54 253.098 19.685C256.019 20.2252 257.481 21.5107 257.481 23.5265V27.4678H246.919V32.5095H266.889H269.506Z" fill="white"/>
<path fill-rule="evenodd" clip-rule="evenodd" d="M157.828 35.3182C157.377 35.8384 157.149 36.4386 157.149 37.0889C157.149 37.8191 157.377 38.4444 157.828 38.9646C158.319 39.5098 158.919 39.7748 159.584 39.7748C161.289 39.7748 162.142 38.9195 162.142 37.189C162.142 36.4386 161.889 35.8034 161.403 35.3182C160.913 34.8181 160.293 34.5681 159.534 34.5681C158.884 34.5681 158.319 34.8181 157.828 35.3182Z" fill="white"/>
<path fill-rule="evenodd" clip-rule="evenodd" d="M124.987 24.2659H127.313C127.962 24.2659 128.642 24.6261 129.361 25.3563C130.079 26.0716 130.437 26.7667 130.437 27.402L130.486 30.103H124.987V24.2659ZM110.141 32.5048H119.761C119.964 33.7254 120.128 34.4605 120.287 34.6856C120.589 35.1508 121.303 35.381 122.424 35.381H135.376V32.5048H147.044H148.854H167.077H169.189H191.533C192.292 32.5048 193.05 32.2198 193.804 31.6595C194.602 31.0393 194.989 30.3542 194.989 29.5789V21.341C194.989 19.5153 193.988 17.8347 191.989 16.3092C190.125 14.8887 188.265 14.1834 186.436 14.1834H174.792V19.3452H185.181C186.391 19.3452 187.457 19.6804 188.419 20.3656C189.391 21.0509 189.882 21.9911 189.882 23.1816V27.2431H169.189H167.077H161.563V19.2252H155.895V26.3277C155.826 26.9479 155.573 27.2431 155.156 27.2431H148.854H147.044H135.544C135.659 25.6075 135.158 23.9519 134.012 22.3163C132.639 20.3456 130.908 19.3452 128.786 19.3452H119.88V27.2431C117.564 27.1781 108.911 27.143 108.782 27.1881C107.389 27.2681 106.293 27.6381 105.5 28.3384C105.202 28.9437 105.034 29.3287 105.034 29.4789V39.0823H110.141V32.5048Z" fill="white"/>
<path fill-rule="evenodd" clip-rule="evenodd" d="M220.244 27.2402H215.486H213.675H209.475V19.3425H204.243V34.2829C204.243 36.1536 203.787 37.2788 202.88 37.659C202.503 37.8491 201.144 37.9442 198.794 37.9442V42.921H203.163C205.855 42.921 207.676 41.7354 208.617 39.3747C209.183 37.9292 209.475 35.6332 209.475 32.5073H213.675H215.486H225.135V2.79166H220.244V27.2402Z" fill="white"/>
<path fill-rule="evenodd" clip-rule="evenodd" d="M151.295 35.2581C150.804 35.7084 150.561 36.2986 150.561 37.0288C150.561 38.7895 151.419 39.6648 153.125 39.6648C154.736 39.6648 155.555 38.8494 155.555 37.1939C155.555 35.4382 154.736 34.5681 153.125 34.5681C152.396 34.5681 151.801 34.8081 151.295 35.2581Z" fill="white"/>
<path fill-rule="evenodd" clip-rule="evenodd" d="M209.513 75.5024H139.711V49.9432H138.709H123.739H91.775V61.7975H123.739V75.5024L77.8359 75.4924V87.3715H123.739H139.711H209.513H227.28V49.9432H209.513V75.5024Z" fill="white"/>
<path fill-rule="evenodd" clip-rule="evenodd" d="M48.3472 90.177H0V103.817H48.3472H66.2133H67.8794V49.9477H48.3472V90.177Z" fill="white"/>
<path fill-rule="evenodd" clip-rule="evenodd" d="M184.715 105.563H203.761V93.5782H184.715V105.563Z" fill="white"/>
<path fill-rule="evenodd" clip-rule="evenodd" d="M207.55 105.563H226.61V93.5782H207.55V105.563Z" fill="white"/>
<path fill-rule="evenodd" clip-rule="evenodd" d="M528.34 46.8405V74.8005V83.4685H512.478H451.499V74.8005H512.478V46.8405H467.506V57.2592H497.065V67.2229H467.506H451.499V57.2592V46.8405V37.9023H467.506H512.478H528.34V46.8405ZM451.499 31.9672H467.547V22.0785H451.499V31.9672ZM470.745 31.9672H486.782V22.0785H470.745V31.9672ZM431.646 105.567H548.195V-6.10352e-05H431.646V105.567Z" fill="white"/>
<path d="M154.955 175.005L158.401 178.431L154.955 181.899L151.508 178.431L154.955 175.005ZM147.895 175.005L151.383 178.431L147.895 181.899L144.49 178.431L147.895 175.005ZM146.746 211.417C143.752 211.417 141.28 210.847 139.331 209.706C137.395 208.577 135.961 207.039 135.028 205.087C134.095 203.152 133.628 200.965 133.628 198.528C133.628 196.899 133.802 195.22 134.15 193.494C134.512 191.753 135.021 190.032 135.675 188.333L140.417 190.172C139.929 191.606 139.519 193.027 139.184 194.434C138.85 195.826 138.683 197.136 138.683 198.361C138.683 199.726 138.934 200.979 139.435 202.121C139.95 203.264 140.793 204.176 141.963 204.859C143.146 205.541 144.74 205.882 146.746 205.882C148.709 205.882 150.317 205.66 151.571 205.213C152.824 204.781 153.771 204.127 154.411 203.25C155.066 202.386 155.449 201.321 155.56 200.053C155.017 200.179 154.446 200.283 153.847 200.367C153.263 200.436 152.643 200.471 151.988 200.471C149.51 200.471 147.567 199.9 146.161 198.758C144.768 197.616 144.072 195.847 144.072 193.452C144.072 192.421 144.239 191.37 144.573 190.297C144.908 189.211 145.402 188.208 146.056 187.289C146.711 186.37 147.519 185.625 148.479 185.053C149.454 184.482 150.561 184.197 151.8 184.197C153.36 184.197 154.69 184.594 155.79 185.388C156.89 186.168 157.788 187.226 158.485 188.563C159.181 189.886 159.689 191.37 160.009 193.013C160.33 194.642 160.49 196.307 160.49 198.006C160.49 202.574 159.362 205.951 157.106 208.139C154.864 210.325 151.411 211.417 146.746 211.417ZM151.884 195.06C152.441 195.06 152.998 195.025 153.555 194.956C154.126 194.886 154.683 194.789 155.226 194.663C155.143 194.12 155.017 193.556 154.85 192.971C154.683 192.372 154.46 191.822 154.182 191.321C153.903 190.819 153.562 190.415 153.158 190.109C152.768 189.789 152.302 189.629 151.759 189.629C151.146 189.629 150.624 189.817 150.192 190.193C149.76 190.569 149.433 191.035 149.21 191.592C149.001 192.136 148.897 192.686 148.897 193.243C148.897 194.023 149.176 194.524 149.733 194.747C150.304 194.956 151.021 195.06 151.884 195.06ZM170.411 173.02V202.184H165.189V173.02H170.411ZM184.302 170.095L187.915 173.71L184.302 177.324L180.688 173.71L184.302 170.095ZM187.059 193.452C187.059 193.104 186.975 192.644 186.808 192.073C186.655 191.502 186.488 191.021 186.307 190.631L182.275 181.627L186.913 179.392L192.009 191.216C192.469 192.289 192.879 193.229 193.241 194.037C193.603 194.844 194 195.471 194.432 195.917C194.864 196.363 195.407 196.585 196.061 196.585H196.938V202.205H196.061C195.003 202.205 194.098 202.073 193.346 201.808C192.608 201.53 191.953 201.147 191.382 200.659C190.826 200.172 190.303 199.601 189.816 198.946C189.134 199.642 188.347 200.234 187.456 200.722C186.578 201.209 185.583 201.578 184.469 201.829C183.355 202.066 182.094 202.184 180.688 202.184C179.518 202.184 178.509 202.142 177.659 202.059C176.824 201.975 175.974 201.829 175.111 201.62V196.021C175.974 196.216 176.866 196.369 177.785 196.481C178.704 196.592 179.567 196.648 180.375 196.648C181.531 196.648 182.617 196.55 183.633 196.355C184.65 196.147 185.471 195.812 186.098 195.353C186.738 194.879 187.059 194.246 187.059 193.452ZM197.022 202.205H196.103L196.124 196.585H196.918C197.656 196.585 198.303 196.321 198.86 195.791C199.417 195.262 199.953 194.58 200.468 193.744C200.984 192.895 201.513 192.003 202.056 191.07C202.613 190.123 203.233 189.225 203.916 188.375C204.598 187.526 205.398 186.836 206.317 186.307C207.236 185.778 208.33 185.513 209.597 185.513C211.155 185.513 212.5 185.84 213.628 186.495C214.769 187.136 215.696 188.013 216.407 189.127C217.13 190.227 217.611 191.46 217.847 192.825C218.014 193.744 218.25 194.482 218.558 195.039C218.863 195.597 219.218 195.993 219.623 196.23C220.041 196.467 220.473 196.585 220.917 196.585H221.461V202.205H220.896C220.006 202.205 219.128 202.003 218.264 201.599C217.401 201.195 216.712 200.687 216.197 200.074C215.514 200.965 214.742 201.627 213.879 202.059C213.029 202.477 211.992 202.686 210.766 202.686C209.805 202.686 208.894 202.546 208.03 202.268C207.167 201.989 206.323 201.599 205.502 201.098C204.696 200.596 203.881 200.018 203.059 199.364C202.543 199.907 202.021 200.395 201.492 200.826C200.963 201.244 200.35 201.578 199.654 201.829C198.958 202.08 198.08 202.205 197.022 202.205ZM209.764 190.861C209.165 190.861 208.621 191.063 208.134 191.467C207.662 191.871 207.236 192.365 206.861 192.95C206.498 193.521 206.191 194.078 205.94 194.622C206.372 195.025 206.79 195.381 207.195 195.687C207.598 195.993 207.981 196.244 208.344 196.439C208.831 196.704 209.277 196.892 209.68 197.003C210.098 197.115 210.467 197.17 210.786 197.17C211.581 197.17 212.151 196.906 212.5 196.376C212.862 195.847 213.043 195.207 213.043 194.454C213.043 193.466 212.75 192.623 212.166 191.927C211.581 191.216 210.78 190.861 209.764 190.861ZM220.625 196.585H222.233C223.738 196.585 224.706 196.223 225.137 195.499C225.569 194.761 225.785 193.695 225.785 192.303V173.02H231.026V192.7C231.026 195.833 230.332 198.201 228.938 199.802C227.559 201.404 225.319 202.205 222.212 202.205H220.625V196.585ZM242.098 173.02V202.184H236.875V173.02H242.098ZM265.344 185.304C266.626 185.304 267.768 185.597 268.771 186.182C269.773 186.766 270.631 187.574 271.339 188.605C272.05 189.636 272.615 190.833 273.032 192.198C273.45 193.563 273.7 195.025 273.784 196.585H275.538V202.205H273.407C272.92 204.225 272.099 205.979 270.944 207.469C269.787 208.974 268.263 210.227 266.369 211.23C264.475 212.246 262.156 213.021 259.413 213.548L257.512 208.41C259.337 208.047 260.993 207.575 262.484 206.99C263.988 206.417 265.249 205.729 266.265 204.92C267.282 204.113 267.964 203.208 268.312 202.205H266.098C263.311 202.205 261.195 201.627 259.747 200.471C258.298 199.315 257.575 197.47 257.575 194.935C257.575 193.904 257.736 192.832 258.056 191.718C258.376 190.59 258.856 189.545 259.496 188.584C260.152 187.609 260.959 186.822 261.92 186.223C262.894 185.61 264.037 185.304 265.344 185.304ZM266.035 196.585H268.897C268.84 195.861 268.73 195.158 268.563 194.475C268.396 193.793 268.166 193.173 267.872 192.616C267.593 192.059 267.239 191.627 266.807 191.321C266.389 191 265.888 190.84 265.304 190.84C264.607 190.84 264.051 191.063 263.633 191.509C263.228 191.941 262.943 192.456 262.776 193.055C262.609 193.654 262.525 194.211 262.525 194.726C262.525 195.506 262.839 196.014 263.466 196.251C264.092 196.474 264.949 196.585 266.035 196.585ZM279.883 192.365V173.02H285.126V192.386C285.126 193.291 285.216 194.057 285.397 194.684C285.593 195.311 285.933 195.785 286.422 196.105C286.908 196.425 287.597 196.585 288.489 196.585H289.157V202.205H288.53C287.528 202.205 286.658 202.101 285.921 201.892C285.195 201.683 284.556 201.376 283.998 200.973C283.456 200.555 282.961 200.039 282.515 199.427C282.028 200.012 281.498 200.513 280.928 200.931C280.37 201.335 279.701 201.648 278.923 201.871C278.157 202.094 277.216 202.205 276.102 202.205H274.723V196.585H275.978C276.951 196.585 277.726 196.432 278.296 196.126C278.866 195.805 279.27 195.332 279.508 194.705C279.758 194.078 279.883 193.299 279.883 192.365ZM288.343 196.585H291.893C293.301 196.585 294.608 196.481 295.821 196.272C297.045 196.063 298.257 195.757 299.455 195.353C300.667 194.935 301.934 194.427 303.256 193.828C304.58 193.229 306.042 192.546 307.643 191.78C306.584 191.39 305.602 191.021 304.698 190.673C303.806 190.311 302.999 189.998 302.274 189.733C301.565 189.454 300.958 189.239 300.457 189.085C299.956 188.918 299.581 188.835 299.33 188.835C298.55 188.835 297.853 189.071 297.24 189.545C296.627 190.019 296.112 190.527 295.694 191.07L294.692 192.323L290.306 190.193L291.121 188.856C292.081 187.282 293.238 185.98 294.588 184.949C295.953 183.904 297.54 183.382 299.351 183.382C300.117 183.382 301.007 183.563 302.023 183.925C303.04 184.274 304.14 184.719 305.323 185.262C306.509 185.792 307.727 186.328 308.98 186.871C310.247 187.414 311.5 187.874 312.74 188.25C313.993 188.612 315.183 188.807 316.311 188.835V193.974C315.35 194.113 314.425 194.343 313.533 194.663C312.657 194.97 311.716 195.374 310.713 195.875C309.711 196.376 308.548 196.982 307.226 197.693C305.443 198.64 303.765 199.454 302.19 200.137C300.618 200.805 299.002 201.321 297.344 201.683C295.702 202.031 293.863 202.205 291.83 202.205H288.343V196.585ZM341.104 172.644L344.718 176.258L341.104 179.872L337.49 176.258L341.104 172.644ZM330.409 204.942C330.409 202.992 330.78 201.209 331.518 199.594C332.255 197.964 333.28 196.523 334.587 195.269C335.897 194.002 337.421 192.916 339.163 192.01C340.902 191.105 342.776 190.381 344.781 189.837C343.862 189.447 343.006 189.099 342.212 188.793C341.432 188.486 340.764 188.243 340.206 188.062C339.664 187.867 339.252 187.769 338.975 187.769C338.195 187.769 337.484 188.006 336.844 188.48C336.217 188.953 335.687 189.462 335.256 190.005L334.253 191.279L329.888 189.127L330.682 187.811C331.656 186.223 332.825 184.914 334.19 183.884C335.569 182.839 337.17 182.317 338.996 182.317C339.747 182.317 340.631 182.498 341.648 182.86C342.664 183.222 343.764 183.675 344.948 184.218C346.131 184.747 347.349 185.283 348.604 185.826C349.857 186.356 351.104 186.808 352.342 187.184C353.581 187.546 354.772 187.741 355.913 187.769L355.893 192.846C355.184 192.901 354.369 192.978 353.448 193.076C352.53 193.173 351.764 193.284 351.153 193.41C351.193 194.273 351.452 194.935 351.925 195.395C352.411 195.854 353.102 196.168 353.992 196.335C354.884 196.502 355.956 196.585 357.209 196.585H358.901V202.205H357.272C355.127 202.205 353.281 201.982 351.737 201.536C350.205 201.091 349.008 200.311 348.144 199.197C347.28 198.083 346.785 196.516 346.661 194.496C344.948 194.998 343.396 195.603 342.002 196.314C340.625 197.024 339.442 197.818 338.452 198.695C337.464 199.573 336.704 200.527 336.174 201.557C335.647 202.574 335.382 203.654 335.382 204.796C335.382 206.189 335.779 207.359 336.571 208.306C337.366 209.266 338.472 209.991 339.894 210.478C341.314 210.965 342.949 211.209 344.801 211.209C346.681 211.209 348.498 211.028 350.254 210.665C352.022 210.305 353.609 209.838 355.017 209.266L356.583 214.49C354.787 215.227 352.886 215.771 350.88 216.119C348.875 216.466 346.891 216.641 344.927 216.641C342.909 216.641 341.02 216.419 339.266 215.973C337.513 215.541 335.973 214.85 334.651 213.905C333.328 212.972 332.29 211.766 331.538 210.291C330.786 208.813 330.409 207.031 330.409 204.942ZM358.044 196.585H361.951V202.205H358.044V196.585ZM364.833 202.205H361.491V196.585H364.833C365.962 196.585 366.728 196.244 367.131 195.562C367.549 194.879 367.756 194.009 367.756 192.95C367.756 192.017 367.646 191 367.422 189.9C367.215 188.786 366.999 187.693 366.775 186.62L371.894 185.304C372.158 186.572 372.366 187.832 372.519 189.085C372.672 190.325 372.749 191.509 372.749 192.637C372.749 194.461 372.505 196.098 372.018 197.546C371.531 198.981 370.71 200.116 369.553 200.952C368.398 201.787 366.823 202.205 364.833 202.205ZM367.923 205.004L371.37 208.43L367.923 211.898L364.479 208.43L367.923 205.004ZM360.865 205.004L364.353 208.43L360.865 211.898L357.459 208.43L360.865 205.004ZM375.528 213.571L373.564 208.43C375.626 207.972 377.373 207.359 378.807 206.593C380.256 205.841 381.356 204.845 382.107 203.605C382.859 202.365 383.236 200.819 383.236 198.967C383.236 197.713 383.046 196.321 382.672 194.789C382.309 193.257 381.898 191.815 381.439 190.464L386.64 188.751C387.184 190.255 387.593 191.85 387.872 193.535C388.151 195.22 388.29 196.836 388.29 198.382C388.29 201.195 387.774 203.639 386.744 205.715C385.713 207.803 384.244 209.502 382.338 210.812C380.429 212.122 378.16 213.041 375.528 213.571ZM392.926 173.02H398.169V192.282C398.169 193.856 398.406 194.97 398.88 195.624C399.367 196.265 400.3 196.585 401.679 196.585H402.201V202.205H401.679C398.656 202.205 396.442 201.418 395.036 199.844C393.631 198.271 392.926 195.882 392.926 192.679V173.02ZM401.386 196.585H403.83V202.205H401.386V196.585ZM411.683 175.652L415.13 179.079L411.683 182.546L408.236 179.079L411.683 175.652ZM404.625 175.652L408.112 179.079L404.625 182.546L401.219 179.079L404.625 175.652ZM406.692 202.205H403.35V196.585H406.692C407.819 196.585 408.585 196.244 408.99 195.562C409.408 194.879 409.616 194.009 409.616 192.95C409.616 192.017 409.506 191 409.281 189.9C409.074 188.786 408.858 187.693 408.634 186.62L413.751 185.304C414.016 186.572 414.225 187.832 414.378 189.085C414.531 190.325 414.608 191.509 414.608 192.637C414.608 194.461 414.364 196.098 413.877 197.546C413.39 198.981 412.567 200.116 411.412 200.952C410.257 201.787 408.683 202.205 406.692 202.205Z" fill="white"/>
</g>
<defs>
<clipPath id="clip0_8548_5751">
<rect width="550" height="218" fill="white"/>
</clipPath>
</defs>
</svg>
